<svg xmlns="http://www.w3.org/2000/svg" fill="none" viewBox="0 0 84 84" height="84" width="84">
<path fill="#C3754C" d="M42.9567 13.3938C43.177 13.2423 43.2803 12.9532 43.2803 12.54V12.1269C43.2803 11.7207 43.177 11.4384 42.9774 11.28C42.7708 11.1217 42.4197 11.0391 41.917 11.0391C41.4557 11.0391 41.1115 11.1148 40.8842 11.2663C40.657 11.4178 40.5469 11.7 40.5469 12.12V12.5332C40.5469 12.9394 40.6502 13.2217 40.8498 13.38C41.0495 13.5384 41.4006 13.621 41.8895 13.621C42.3783 13.621 42.7364 13.5453 42.9498 13.3938H42.9567ZM43.2183 16.3545C43.2183 15.9758 43.0944 15.6659 42.8465 15.4112C42.5987 15.1564 42.2888 15.0325 41.917 15.0325C41.5452 15.0325 41.2285 15.1564 40.9875 15.4112C40.7397 15.6659 40.6157 15.9758 40.6157 16.3545V25.3122C40.6157 25.6909 40.7397 26.0007 40.9875 26.2555C41.2354 26.5102 41.5452 26.6341 41.917 26.6341C42.2888 26.6341 42.6056 26.5102 42.8465 26.2555C43.0944 26.0007 43.2183 25.6909 43.2183 25.3122V16.3545Z"></path>
<path fill="#1D4D43" d="M60.7696 76.5439C58.3942 78.2652 55.764 79.656 52.9479 80.6544C52.6863 80.7439 52.3971 80.6888 52.1837 80.5167C51.984 80.3514 51.7843 80.1862 51.5984 80.0141C50.2902 78.878 49.1335 77.6249 47.7496 76.6609C45.6289 75.0842 43.2742 73.7554 40.5614 74.6849C37.2151 75.8554 35.9069 78.7196 33.5797 81.0882C33.5453 81.1226 33.5109 81.157 33.4764 81.1914C30.7568 80.3996 28.1886 79.2636 25.8269 77.8245C25.166 77.4252 25.4138 76.4131 26.185 76.358C26.9148 76.3098 27.6309 76.2134 28.3538 76.2134C29.662 76.1721 30.8807 76.1652 32.1958 75.8691C33.4558 75.6075 34.6951 75.098 35.8243 74.4439C37.0155 73.7485 38.0964 72.9223 39.2669 72.1442C43.281 69.3901 47.4328 68.1921 52.0804 70.2714C55.1581 71.5865 57.8846 73.5557 60.7214 75.215C61.2171 75.5111 61.2446 76.2134 60.7764 76.5439"></path>
<path fill="#1D4D43" d="M70.6468 64.7327C70.0616 65.9445 69.4006 67.115 68.6639 68.2373C67.3144 70.3029 64.7324 71.2117 62.3983 70.413C62.3845 70.413 62.3708 70.4061 62.357 70.3993C60.4154 69.7521 58.5839 68.7606 56.9108 67.6039C53.778 65.4694 51.2786 62.6465 48.0632 60.7186C46.5209 59.7891 44.9167 58.9698 43.1678 58.5153C42.8304 58.3983 42.3278 58.3157 41.9629 58.2399C41.9422 58.2399 41.9216 58.233 41.894 58.2261C41.6599 58.1986 41.178 58.1229 40.9783 58.1022C40.6685 58.0953 40.3173 58.0471 40.0075 58.0609L39.3534 58.0747C35.2911 58.3501 31.9173 61.0284 29.1701 63.9202C27.917 65.2216 26.6088 66.6606 25.1973 67.8517C23.655 69.1393 21.858 70.2409 19.9026 70.8399H19.8819C18.8354 71.1842 17.6924 70.8261 17.0176 69.9517C15.8678 68.4645 14.8419 66.874 13.9675 65.1871C13.6714 64.6225 14.0639 63.934 14.7111 63.9134C15.4891 63.8996 19.4068 63.4727 20.5704 63.2593C23.7927 62.7222 26.9186 61.4484 29.6934 59.6583C31.4147 58.5704 33.0396 57.3655 34.7954 56.2776C39.8147 53.1104 45.5019 51.6714 51.2373 53.8678C54.2324 55.0107 57.0622 56.8009 59.6924 58.5153C63.3209 60.8839 66.1232 62.9632 69.9858 63.5002C70.5642 63.5829 70.8947 64.2025 70.6399 64.7258"></path>
<path fill="#1D4D43" d="M71.5407 47.6498C72.7939 47.7738 73.7578 48.8134 73.7578 50.0803V51.1406C73.7578 51.7328 73.744 52.3249 73.7096 52.917C73.6476 54.06 72.7939 54.9964 71.6647 55.1823C68.9657 55.6229 66.122 55.4302 63.3611 54.4731C61.4194 53.8259 59.588 52.8344 57.9149 51.6777C54.7821 49.5433 52.2827 46.7203 49.0673 44.7925C47.525 43.8629 45.9207 43.0436 44.1719 42.5892C43.8552 42.4859 43.3939 42.4033 43.0427 42.3275C42.9739 42.3138 42.9119 42.3 42.843 42.2931C42.5952 42.2587 42.1752 42.1967 41.9893 42.1829C41.6794 42.1761 41.3283 42.1279 41.0185 42.1416L40.3643 42.1554C36.3021 42.4308 32.9352 45.1092 30.1811 48.001C28.928 49.3023 27.6198 50.7413 26.2083 51.9325C24.666 53.22 22.8689 54.3216 20.9135 54.9206C19.3506 55.4233 17.6981 55.6161 16.0663 55.5816C14.8132 55.5541 13.567 55.3957 12.3483 55.1272C11.3017 54.8931 10.5375 53.998 10.4548 52.9308C10.386 52.0839 10.3516 51.2302 10.3516 50.3626C10.3516 48.9374 11.5771 47.822 12.9955 47.9321C13.8975 48.001 14.8063 48.0285 15.7152 47.9941C16.686 47.9803 17.6499 47.8495 18.6207 47.7669C19.9152 47.6085 21.2371 47.4364 22.5109 47.1541C25.3889 46.5688 28.1981 45.3433 30.6975 43.739C33.3208 42.059 35.7788 40.1518 38.6362 38.8023C43.2837 36.5577 48.2686 36.1928 53.0539 38.2721C55.7391 39.422 58.3073 41.0331 60.6965 42.5961C64.4971 45.0747 67.3889 47.2367 71.5407 47.6498Z"></path>
<path fill="#C3754C" d="M42.051 37.6952C41.4795 37.6952 40.97 37.3785 40.7153 36.869L39.0146 33.4677C31.9779 32.0355 26.8828 25.7906 26.8828 18.6024C26.8828 14.4437 28.5353 10.5604 31.5441 7.66864C34.5461 4.77684 38.4845 3.28274 42.6569 3.4411C50.0792 3.73028 56.3035 9.51389 57.1297 16.888C57.9972 24.6408 52.7162 31.9116 45.0943 33.4608L43.3936 36.8621C43.1389 37.3716 42.6294 37.6883 42.0579 37.6883L42.051 37.6952ZM42.051 5.49979C38.6497 5.49979 35.4481 6.78733 32.9763 9.16274C30.3805 11.6621 28.9484 15.0152 28.9484 18.6024C28.9484 24.8267 33.3687 30.2316 39.469 31.4503L39.9166 31.5398C40.2333 31.6018 40.4949 31.8083 40.6395 32.0906L42.051 34.9204L43.4694 32.0906C43.614 31.8083 43.8756 31.6018 44.1923 31.5398L44.6467 31.4503C51.2497 30.1283 55.8353 23.8352 55.0779 17.1221C54.3618 10.7463 48.9913 5.75454 42.5743 5.50667C42.4022 5.49979 42.2231 5.4929 42.051 5.4929V5.49979Z"></path>
</svg>
