<svg xmlns="http://www.w3.org/2000/svg" fill="none" viewBox="0 0 84 84" height="84" width="84">
<path fill="#C3754C" d="M24.9171 47.6958H22.8516V47.0211C22.8516 38.628 22.8516 30.2417 22.8516 21.8486C22.8516 19.845 24.1184 18.5781 26.1221 18.5781C36.9181 18.5781 47.7142 18.5781 58.5033 18.5781C60.4725 18.5781 61.7601 19.8519 61.7601 21.7935C61.7601 30.228 61.7601 38.6624 61.7601 47.0968V47.6614H59.7289V26.7922H47.4181V27.8939C47.4181 29.1263 47.4043 30.3657 47.4181 31.5981C47.425 32.1283 47.3286 32.5758 46.7915 32.803C46.2269 33.044 45.8207 32.7755 45.4352 32.383C44.4161 31.3503 43.3903 30.3312 42.3024 29.2503C42.1165 29.4293 41.9374 29.5945 41.7653 29.7667C40.8565 30.6686 39.9545 31.5706 39.0525 32.4794C38.6876 32.8444 38.2814 33.0096 37.7857 32.7893C37.3106 32.5827 37.166 32.1971 37.1729 31.7014C37.1866 30.0834 37.1729 28.4653 37.1729 26.7991H24.8965V47.6958H24.9171ZM37.1591 24.6853V20.623C33.3791 20.623 29.6266 20.6162 25.881 20.6299C25.3578 20.6299 24.9584 20.988 24.9309 21.5044C24.8758 22.5578 24.9171 23.6112 24.9171 24.6785H37.1591V24.6853ZM59.722 24.6991C59.722 23.7765 59.722 22.9021 59.722 22.0345C59.722 20.9604 59.3778 20.6162 58.3106 20.6162C54.8955 20.6162 51.4873 20.6162 48.0722 20.6162C47.8657 20.6162 47.666 20.6368 47.4801 20.6437V24.6991H59.722ZM39.2453 29.2021C39.2935 29.2365 39.3348 29.2709 39.383 29.2985C40.0164 28.6444 40.643 27.9903 41.2764 27.343C42.1027 26.5099 42.5158 26.5168 43.3558 27.3637C43.9961 28.004 44.6227 28.6444 45.3319 29.3535V20.6712H39.2384V29.2021H39.2453Z"></path>
<path fill="#1D4D43" d="M60.7696 76.4736C58.3941 78.1949 55.764 79.5857 52.9479 80.5841C52.6863 80.6736 52.3971 80.6185 52.1837 80.4464C51.984 80.2811 51.7843 80.1159 51.5984 79.9437C50.2902 78.8077 49.1335 77.5546 47.7496 76.5906C45.6289 75.0139 43.2742 73.6851 40.5614 74.6146C37.2151 75.7851 35.9069 78.6493 33.5797 81.0178C33.5453 81.0523 33.5109 81.0867 33.4765 81.1211C30.7568 80.3293 28.1886 79.1932 25.8269 77.7542C25.166 77.3549 25.4138 76.3428 26.185 76.2877C26.9148 76.2395 27.6309 76.1431 28.3539 76.1431C29.662 76.1018 30.8807 76.0949 32.1958 75.7988C33.4558 75.5372 34.6951 75.0277 35.8243 74.3736C37.0155 73.6782 38.0965 72.8519 39.2669 72.0739C43.281 69.3198 47.4328 68.1218 52.0804 70.2011C55.1581 71.5162 57.8846 73.4854 60.7214 75.1447C61.2171 75.4408 61.2446 76.1431 60.7764 76.4736"></path>
<path fill="#1D4D43" d="M70.6468 64.6858C70.0616 65.8976 69.4006 67.0681 68.6639 68.1904C67.3144 70.256 64.7324 71.1649 62.3983 70.3662C62.3845 70.3662 62.3707 70.3593 62.357 70.3524C60.4153 69.7052 58.5839 68.7137 56.9108 67.557C53.778 65.4226 51.2786 62.5996 48.0632 60.6717C46.5209 59.7422 44.9166 58.9229 43.1678 58.4685C42.8304 58.3514 42.3278 58.2688 41.9629 58.193C41.9422 58.193 41.9216 58.1862 41.894 58.1793C41.6599 58.1517 41.178 58.076 40.9783 58.0553C40.6685 58.0485 40.3173 58.0003 40.0075 58.014L39.3534 58.0278C35.2911 58.3032 31.9173 60.9816 29.1701 63.8734C27.917 65.1747 26.6088 66.6137 25.1973 67.8048C23.655 69.0924 21.858 70.194 19.9026 70.793H19.8819C18.8353 71.1373 17.6924 70.7793 17.0176 69.9048C15.8678 68.4176 14.8419 66.8271 13.9675 65.1403C13.6714 64.5757 14.0639 63.8871 14.7111 63.8665C15.4891 63.8527 19.4068 63.4258 20.5704 63.2124C23.7927 62.6753 26.9186 61.4016 29.6934 59.6114C31.4147 58.5235 33.0396 57.3186 34.7954 56.2307C39.8147 53.0635 45.5019 51.6245 51.2373 53.8209C54.2324 54.9639 57.0622 56.754 59.6924 58.4685C63.3209 60.837 66.1232 62.9163 69.9858 63.4534C70.5642 63.536 70.8947 64.1557 70.6399 64.6789"></path>
<path fill="#1D4D43" d="M71.5407 47.603C72.7938 47.7269 73.7578 48.7666 73.7578 50.0334V51.0938C73.7578 51.6859 73.744 52.278 73.7096 52.8702C73.6476 54.0131 72.7938 54.9495 71.6647 55.1354C68.9656 55.5761 66.122 55.3833 63.3611 54.4262C61.4194 53.779 59.588 52.7875 57.9148 51.6308C54.7821 49.4964 52.2827 46.6734 49.0673 44.7456C47.525 43.8161 45.9207 42.9967 44.1719 42.5423C43.8552 42.439 43.3938 42.3564 43.0427 42.2807C42.9738 42.2669 42.9119 42.2531 42.843 42.2462C42.5952 42.2118 42.1752 42.1498 41.9893 42.1361C41.6794 42.1292 41.3283 42.081 41.0184 42.0948L40.3644 42.1085C36.3021 42.3839 32.9352 45.0623 30.1811 47.9541C28.9279 49.2554 27.6198 50.6944 26.2083 51.8856C24.666 53.1731 22.869 54.2748 20.9135 54.8738C19.3506 55.3764 17.6981 55.5692 16.0663 55.5348C14.8132 55.5072 13.567 55.3489 12.3483 55.0803C11.3017 54.8462 10.5375 53.9511 10.4549 52.8839C10.386 52.037 10.3516 51.1833 10.3516 50.3157C10.3516 48.8905 11.5772 47.7751 12.9955 47.8852C13.8975 47.9541 14.8063 47.9816 15.7152 47.9472C16.686 47.9334 17.6499 47.8026 18.6207 47.72C19.9152 47.5616 21.2371 47.3895 22.5109 47.1072C25.3889 46.522 28.1981 45.2964 30.6975 43.6921C33.3207 42.0121 35.7788 40.1049 38.6362 38.7554C43.2837 36.5108 48.2686 36.1459 53.0539 38.2252C55.7391 39.3751 58.3073 40.9862 60.6965 42.5492C64.4971 45.0279 67.3889 47.1898 71.5407 47.603Z"></path>
</svg>
