<svg xmlns="http://www.w3.org/2000/svg" fill="none" viewBox="0 0 84 84" height="84" width="84">
<path fill="#1D4D43" d="M60.7696 76.7705C58.3941 78.4918 55.764 79.8826 52.9479 80.8809C52.6863 80.9705 52.3971 80.9154 52.1837 80.7432C51.984 80.578 51.7843 80.4127 51.5984 80.2406C50.2902 79.1046 49.1335 77.8514 47.7496 76.8875C45.6289 75.3108 43.2742 73.9819 40.5614 74.9114C37.2151 76.0819 35.9069 78.9462 33.5797 81.3147C33.5453 81.3491 33.5109 81.3836 33.4764 81.418C30.7568 80.6262 28.1886 79.4901 25.8269 78.0511C25.166 77.6518 25.4138 76.6396 26.185 76.5846C26.9148 76.5364 27.6309 76.44 28.3538 76.44C29.662 76.3987 30.8807 76.3918 32.1958 76.0957C33.4558 75.8341 34.6951 75.3246 35.8243 74.6705C37.0155 73.975 38.0964 73.1488 39.2669 72.3708C43.281 69.6167 47.4328 68.4186 52.0804 70.498C55.165 71.8131 57.8915 73.7823 60.7214 75.4416C61.2102 75.7377 61.2446 76.44 60.7764 76.7705"></path>
<path fill="#1D4D43" d="M70.6468 64.9905C70.0616 66.2023 69.4006 67.3728 68.6639 68.4951C67.3144 70.5607 64.7324 71.4695 62.3983 70.6708C62.3845 70.6708 62.3708 70.664 62.357 70.6571C60.4154 70.0099 58.5839 69.0184 56.9108 67.8617C53.7711 65.7272 51.2786 62.9043 48.0632 60.9764C46.5209 60.0469 44.9167 59.2276 43.1678 58.7731C42.8304 58.6561 42.3278 58.5735 41.9629 58.4977C41.9422 58.4977 41.9216 58.4908 41.894 58.484C41.6599 58.4564 41.178 58.3807 40.9783 58.36C40.6685 58.3531 40.3173 58.3049 40.0075 58.3187L39.3534 58.3325C35.2911 58.6079 31.9173 61.2863 29.1701 64.1781C27.917 65.4794 26.6088 66.9184 25.1973 68.1095C23.655 69.3971 21.858 70.4987 19.9026 71.0977H19.8819C18.8354 71.442 17.6924 71.084 17.0177 70.2095C15.8678 68.7223 14.8419 67.1318 13.9675 65.4449C13.6714 64.8804 14.0639 64.1918 14.7111 64.1712C15.4891 64.1574 19.4068 63.7305 20.5704 63.5171C23.7927 62.98 26.9186 61.7063 29.6934 59.9161C31.4147 58.8282 33.0465 57.6233 34.7954 56.5354C39.8147 53.3682 45.5088 51.9292 51.2373 54.1256C54.2324 55.2685 57.0622 57.0587 59.6924 58.7731C63.3209 61.1417 66.1232 63.221 69.9858 63.7581C70.5642 63.8407 70.8947 64.4604 70.6399 64.9836"></path>
<path fill="#1D4D43" d="M71.5407 47.8842C72.7939 48.0081 73.7578 49.0478 73.7578 50.3147V51.375C73.7578 51.9672 73.744 52.5593 73.7096 53.1514C73.6476 54.2944 72.7939 55.2308 71.6647 55.4167C68.9657 55.8573 66.1221 55.6645 63.3611 54.7075C61.4194 54.0603 59.588 53.0688 57.9148 51.9121C54.7821 49.7776 52.2827 46.9547 49.0673 45.0268C47.525 44.0973 45.9207 43.278 44.1719 42.8235C43.8552 42.7203 43.3939 42.6376 43.0427 42.5619C42.9739 42.5481 42.9119 42.5344 42.843 42.5275C42.5952 42.4931 42.1752 42.4311 41.9893 42.4173C41.6794 42.4104 41.3283 42.3622 41.0184 42.376L40.3643 42.3898C36.3021 42.6652 32.9352 45.3435 30.1811 48.2354C28.928 49.5367 27.6198 50.9757 26.2083 52.1668C24.666 53.4544 22.8689 54.556 20.9135 55.155C19.3506 55.6576 17.6981 55.8504 16.0663 55.816C14.8132 55.7885 13.567 55.6301 12.3483 55.3616C11.3017 55.1275 10.5375 54.2324 10.4548 53.1652C10.386 52.3183 10.3516 51.4645 10.3516 50.597C10.3516 49.1717 11.5771 48.0563 12.9955 48.1665C13.8975 48.2354 14.8063 48.2629 15.7152 48.2285C16.686 48.2147 17.6499 48.0839 18.6139 48.0013C19.9083 47.8429 21.2303 47.6708 22.504 47.3885C25.3821 46.8032 28.1912 45.5776 30.6837 43.9734C33.307 42.2934 35.765 40.3862 38.6224 39.0367C43.2699 36.7921 48.2548 36.4272 53.0401 38.5065C55.7253 39.6563 58.2935 41.2675 60.6827 42.8304C64.4834 45.3091 67.3752 47.4711 71.527 47.8842"></path>
<path fill="#C3754C" d="M40.9869 36.8805C40.7666 36.8805 40.5463 36.8117 40.3604 36.6671C39.0866 35.6963 36.5735 33.6858 34.0535 31.152C29.5299 26.6077 27.12 22.4766 27.0787 19.2199C27.0512 17.113 27.9944 15.309 29.881 13.87C31.1754 12.8854 32.5938 12.3828 34.1017 12.3828C36.8282 12.3828 39.3551 14.0146 40.9938 15.3848C42.6325 14.0146 45.1594 12.3828 47.8859 12.3828C49.3938 12.3828 50.8122 12.8854 52.1066 13.87C53.9931 15.309 54.9364 17.113 54.9089 19.2199C54.8676 22.4766 52.4508 26.6008 47.9341 31.152C45.4141 33.6858 42.901 35.6963 41.6203 36.6671C41.4344 36.8048 41.2141 36.8805 40.9938 36.8805H40.9869ZM34.0948 14.4553C33.0482 14.4553 32.0499 14.8133 31.1272 15.5156C29.7502 16.5622 29.1167 17.7326 29.1374 19.1923C29.1718 21.8638 31.4371 25.5956 35.5131 29.6923C37.6131 31.8061 39.7544 33.5687 40.9869 34.5395C42.2194 33.5687 44.3607 31.8061 46.4607 29.6923C50.5367 25.5887 52.802 21.8638 52.8364 19.1923C52.8571 17.7326 52.2236 16.5622 50.8466 15.5156C49.924 14.8133 48.9256 14.4553 47.879 14.4553C45.7722 14.4553 43.6859 15.8254 42.3089 16.9822L41.6479 17.533C41.2623 17.8566 40.7046 17.8566 40.3259 17.533L39.6649 16.9822C38.2879 15.8323 36.2017 14.4553 34.0948 14.4553Z"></path>
</svg>
