<svg xmlns="http://www.w3.org/2000/svg" fill="none" viewBox="0 0 84 84" height="84" width="84">
<path fill="#1D4D43" d="M60.7696 76.7236C58.3942 78.4449 55.764 79.8357 52.9479 80.8341C52.6863 80.9236 52.3971 80.8685 52.1837 80.6964C51.984 80.5311 51.7843 80.3659 51.5984 80.1937C50.2902 79.0577 49.1335 77.8046 47.7496 76.8406C45.6289 75.2639 43.2742 73.9351 40.5614 74.8646C37.2151 76.0351 35.9069 78.8993 33.5797 81.2678C33.5453 81.3023 33.5109 81.3367 33.4764 81.3711C30.7568 80.5793 28.1886 79.4432 25.8269 78.0042C25.166 77.6049 25.4138 76.5928 26.185 76.5377C26.9148 76.4895 27.6309 76.3931 28.3538 76.3931C29.662 76.3518 30.8807 76.3449 32.1958 76.0488C33.4558 75.7872 34.6951 75.2777 35.8243 74.6236C37.0155 73.9282 38.0965 73.1019 39.2669 72.3239C43.281 69.5698 47.4328 68.3718 52.0804 70.4511C55.165 71.7662 57.8915 73.7354 60.7214 75.3947C61.2102 75.6908 61.2447 76.3931 60.7765 76.7236"></path>
<path fill="#1D4D43" d="M70.6468 64.9358C70.0616 66.1476 69.4006 67.3181 68.6639 68.4404C67.3144 70.506 64.7324 71.4149 62.3983 70.6162C62.3845 70.6162 62.3708 70.6093 62.357 70.6024C60.4154 69.9552 58.5839 68.9637 56.9108 67.807C53.7711 65.6726 51.2786 62.8496 48.0632 60.9217C46.5209 59.9922 44.9167 59.1729 43.1678 58.7185C42.8304 58.6014 42.3278 58.5188 41.9629 58.443C41.9422 58.443 41.9216 58.4362 41.894 58.4293C41.6599 58.4017 41.178 58.326 40.9783 58.3053C40.6685 58.2985 40.3173 58.2503 40.0075 58.264L39.3534 58.2778C35.2911 58.5532 31.9173 61.2316 29.1701 64.1234C27.917 65.4247 26.6088 66.8637 25.1973 68.0548C23.655 69.3424 21.858 70.444 19.9026 71.043H19.8819C18.8354 71.3873 17.6924 71.0293 17.0176 70.1548C15.8678 68.6676 14.8419 67.0771 13.9675 65.3903C13.6714 64.8257 14.0639 64.1371 14.7111 64.1165C15.4891 64.1027 19.4068 63.6758 20.5704 63.4624C23.7927 62.9253 26.9186 61.6516 29.6934 59.8614C31.4147 58.7735 33.0396 57.5686 34.7954 56.4807C39.8147 53.3135 45.5088 51.8745 51.2373 54.0709C54.2324 55.2139 57.0622 57.004 59.6924 58.7185C63.3209 61.087 66.1232 63.1663 69.9858 63.7034C70.5642 63.786 70.8947 64.4057 70.6399 64.9289"></path>
<path fill="#1D4D43" d="M71.5407 47.8373C72.7939 47.9613 73.7578 49.0009 73.7578 50.2678V51.3281C73.7578 51.9203 73.744 52.5124 73.7096 53.1045C73.6476 54.2475 72.7939 55.1839 71.6647 55.3698C68.9657 55.8104 66.1221 55.6177 63.3611 54.6606C61.4194 54.0134 59.588 53.0219 57.9148 51.8652C54.7821 49.7308 52.2827 46.9078 49.0673 44.98C47.525 44.0504 45.9207 43.2311 44.1719 42.7767C43.8552 42.6734 43.3939 42.5908 43.0427 42.515C42.9739 42.5013 42.9119 42.4875 42.843 42.4806C42.5952 42.4462 42.1752 42.3842 41.9893 42.3704C41.6794 42.3636 41.3283 42.3154 41.0185 42.3291L40.3643 42.3429C36.302 42.6183 32.9283 45.2967 30.1811 48.1885C28.928 49.4898 27.6198 50.9288 26.2083 52.12C24.666 53.4075 22.8689 54.5091 20.9135 55.1081C19.3506 55.6108 17.6981 55.8036 16.0663 55.7691C14.8132 55.7416 13.567 55.5832 12.3483 55.3147C11.3017 55.0806 10.5375 54.1855 10.4548 53.1183C10.386 52.2714 10.3516 51.4177 10.3516 50.5501C10.3516 49.1249 11.5771 48.0095 12.9955 48.1196C13.8975 48.1885 14.8063 48.216 15.7152 48.1816C16.686 48.1678 17.6499 48.037 18.6139 47.9544C19.9083 47.796 21.2303 47.6239 22.504 47.3416C25.3821 46.7563 28.1912 45.5308 30.6837 43.9265C33.307 42.2465 35.765 40.3393 38.6224 38.9898C43.2699 36.7452 48.2548 36.3803 53.0401 38.4596C55.7253 39.6095 58.2935 41.2206 60.6827 42.7836C64.4834 45.2622 67.3752 47.4242 71.527 47.8373"></path>
<path fill="#C3754C" d="M68.2291 27.1004C68.0088 27.2519 67.7265 27.3208 67.4511 27.2726C66.5422 27.1073 60.8068 26.2329 54.734 25.3034C47.3255 24.1742 39.6622 23.0037 38.4367 22.7696C38.3334 22.749 38.2645 22.8453 38.2439 22.8729C38.0511 23.1483 37.8514 23.4168 37.6449 23.6785C37.0665 24.4083 36.1163 24.7181 35.2281 24.4565C34.3537 24.2017 33.7272 23.4512 33.6308 22.5424L33.1695 18.1634C33.0662 17.1994 33.5757 16.3112 34.4501 15.8844C35.3108 15.4712 36.2954 15.6365 36.9701 16.3044C37.0665 16.4008 37.1698 16.4972 37.2662 16.5935C37.2937 16.6211 37.3488 16.6349 37.4039 16.6349L59.7534 15.1614C60.1183 15.1408 60.8137 15.1614 61.3714 15.6227C61.4472 15.6847 61.5091 15.7535 61.5642 15.8293C63.4026 18.4457 68.1878 25.2552 68.4563 25.627C68.6767 25.9231 68.7317 26.3155 68.5803 26.6667C68.5045 26.8457 68.3806 26.9903 68.2291 27.0935V27.1004ZM37.1216 21.1034C37.6104 20.7591 38.2232 20.6145 38.8291 20.7316C40.0134 20.9588 48.0003 22.1775 55.0439 23.2516C59.0649 23.8644 62.9413 24.4565 65.3786 24.8352C64.3803 23.4237 62.7416 21.0896 60.0219 17.2201C59.9875 17.2201 59.9462 17.2201 59.8911 17.2201L37.5416 18.6935C36.915 18.7349 36.3022 18.5145 35.8547 18.0945C35.7445 17.9912 35.6275 17.8811 35.5173 17.7709C35.4898 17.7434 35.4485 17.7021 35.3452 17.7503C35.2832 17.7778 35.2144 17.8398 35.2281 17.9499L35.6894 22.329C35.6894 22.3634 35.7032 22.446 35.8065 22.4735C35.8891 22.5011 35.9649 22.4735 36.0268 22.3978C36.2058 22.1706 36.3849 21.9365 36.5501 21.6955C36.7085 21.4614 36.9081 21.2686 37.1285 21.1103L37.1216 21.1034Z"></path>
<path fill="#C3754C" d="M30.2374 35.4084C30.203 35.436 30.1686 35.4566 30.1272 35.4704C29.8656 35.5943 29.542 35.5599 29.301 35.3878C29.06 35.2156 28.9292 34.9402 28.9567 34.6442C29.2528 31.112 30.5679 27.752 32.7436 24.9291C33.019 24.571 33.4941 24.516 33.859 24.7914C34.224 25.0737 34.2928 25.5763 34.0174 25.9343C32.0344 28.5025 30.8364 31.5802 30.561 34.8301C30.5403 35.0642 30.4233 35.2707 30.2443 35.4015L30.2374 35.4084Z"></path>
<path fill="#C3754C" d="M23.9125 28.9799C23.7197 29.1107 23.4718 29.1658 23.224 29.1038C22.7902 28.9936 22.5492 28.5874 22.6594 28.1536C23.4787 24.9589 25.5443 22.1428 28.3328 20.4353C28.5807 20.2838 28.8836 20.27 29.1453 20.4077C29.4069 20.5523 29.5791 20.8277 29.5859 21.1169C29.5928 21.3923 29.4551 21.6402 29.2072 21.7917C26.7561 23.2995 24.9453 25.7438 24.2361 28.5117C24.1879 28.7113 24.0709 28.8697 23.9125 28.9799Z"></path>
<path fill="#C3754C" d="M25.4282 36.9989C25.4282 36.9989 25.3731 37.0333 25.3387 37.054C25.0839 37.1848 24.7672 37.1641 24.5124 36.9989C24.2577 36.8336 24.12 36.5582 24.1338 36.2622C24.3197 32.6887 25.5246 29.253 27.6315 26.3199C27.8931 25.9618 28.3613 25.8861 28.7262 26.1477C29.1049 26.4231 29.1944 26.9258 28.9259 27.2976C27.0118 29.9622 25.9101 33.1156 25.7449 36.4205C25.7311 36.6615 25.6141 36.875 25.4282 37.0058V36.9989Z"></path>
</svg>
